<svg width="86" height="86" viewBox="0 0 86 86" fill="none" xmlns="http://www.w3.org/2000/svg">
<g id="material-symbols:prayer-times-rounded">
<path id="Vector" d="M30.9958 71.6667H21.5C19.5292 71.6667 17.8414 70.9643 16.4367 69.5597C15.0321 68.155 14.3309 66.4684 14.3333 64.5V55.0042L7.43542 48.0167C6.77847 47.3 6.27083 46.5093 5.9125 45.6445C5.55417 44.7797 5.375 43.8982 5.375 43C5.375 42.1042 5.55417 41.2227 5.9125 40.3555C6.27083 39.4883 6.77847 38.6976 7.43542 37.9833L14.3333 30.9958V21.5C14.3333 19.5292 15.0357 17.8414 16.4403 16.4367C17.845 15.0321 19.5316 14.3309 21.5 14.3333H30.9958L37.9833 7.43542C38.7 6.77847 39.4919 6.27083 40.3591 5.9125C41.2262 5.55417 42.1066 5.375 43 5.375C43.8958 5.375 44.7773 5.55417 45.6445 5.9125C46.5117 6.27083 47.3024 6.77847 48.0167 7.43542L55.0042 14.3333H64.5C66.4708 14.3333 68.1586 15.0357 69.5632 16.4403C70.9679 17.845 71.6691 19.5316 71.6667 21.5V30.9958L78.5646 37.9833C79.2215 38.7 79.7292 39.4919 80.0875 40.3591C80.4458 41.2262 80.625 42.1066 80.625 43C80.625 43.8958 80.4458 44.7773 80.0875 45.6445C79.7292 46.5117 79.2215 47.3024 78.5646 48.0167L71.6667 55.0042V64.5C71.6667 66.4708 70.9643 68.1586 69.5597 69.5632C68.155 70.9679 66.4684 71.6691 64.5 71.6667H55.0042L48.0167 78.5646C47.3 79.2215 46.5093 79.7292 45.6445 80.0875C44.7797 80.4458 43.8982 80.625 43 80.625C42.1042 80.625 41.2239 80.4458 40.3591 80.0875C39.4943 79.7292 38.7024 79.2215 37.9833 78.5646L30.9958 71.6667ZM46.6729 41.2083L51.9583 37.3563L57.1542 41.2083L55.0938 35.1167L60.3792 31.2646H53.9292L51.9583 25.0833L49.9875 31.2646H43.4479L48.7333 35.1167L46.6729 41.2083ZM43 60.9167C47.9569 60.9167 52.1829 59.1847 55.6778 55.7208C59.1728 52.2569 60.9191 48.0167 60.9167 43C60.9167 42.5222 60.9011 42.0444 60.8701 41.5667C60.839 41.0889 60.765 40.6111 60.6479 40.1333C59.991 42.9403 58.5278 45.2551 56.2583 47.0778C53.9889 48.9006 51.3312 49.8107 48.2854 49.8083C44.7021 49.8083 41.6861 48.584 39.2375 46.1354C36.7889 43.6868 35.5646 40.6708 35.5646 37.0875C35.5646 34.3403 36.341 31.8761 37.8937 29.6951C39.4465 27.514 41.4771 25.9768 43.9854 25.0833H43C37.9833 25.0833 33.7431 26.8308 30.2792 30.3258C26.8153 33.8207 25.0833 38.0454 25.0833 43C25.0833 48.0167 26.8153 52.2569 30.2792 55.7208C33.7431 59.1847 37.9833 60.9167 43 60.9167Z" fill="#0D8F75"/>
</g>
</svg>
